<svg width="2696" height="766" xmlns="http://www.w3.org/2000/svg" xmlns:xlink="http://www.w3.org/1999/xlink" xml:space="preserve" overflow="hidden"><defs><clipPath id="clip0"><rect x="145" y="-11" width="2696" height="766"/></clipPath></defs><g clip-path="url(#clip0)" transform="translate(-145 11)"><rect x="2126" y="294" width="179" height="235" stroke="#D9D9D9" stroke-width="10.3125" stroke-miterlimit="8" fill="#F2F2F2"/><rect x="2500" y="294" width="179" height="235" stroke="#D9D9D9" stroke-width="10.3125" stroke-miterlimit="8" fill="#F2F2F2"/><text font-family="Yu Gothic,Yu Gothic_MSFontService,sans-serif" font-weight="700" font-size="83" transform="matrix(1 0 0 1 339.645 90)">デジタル<tspan font-size="83" x="926.129" y="0">アナログ</tspan><tspan font-size="83" x="1650.2" y="0">デジタル回路の信号</tspan></text><path d="M305 525 305 379.636 400.635 379.636 400.635 252 489.187 252 489.187 174 591.906 174 591.906 397.364 684 397.364 684 521.455" stroke="#000000" stroke-width="10.3125" stroke-miterlimit="8" fill="none" fill-rule="evenodd"/><path d="M145 519.844 828.896 519.844 828.896 530.156 145 530.156ZM823.74 509.531 854.678 525 823.74 540.469Z"/><text font-family="Yu Gothic,Yu Gothic_MSFontService,sans-serif" font-weight="700" font-size="83" transform="matrix(1 0 0 1 642.216 661)">time</text><path d="M1072 519.844 1755.9 519.844 1755.9 530.156 1072 530.156ZM1750.74 509.531 1781.68 525 1750.74 540.469Z"/><text font-family="Yu Gothic,Yu Gothic_MSFontService,sans-serif" font-weight="700" font-size="83" transform="matrix(1 0 0 1 1568.35 661)">time</text><path d="M1235.19 529C1234.6 451.422 1234.01 373.845 1256.48 347.788 1278.95 321.731 1337.49 408.784 1370.01 372.66 1402.53 336.536 1425 127.491 1451.61 131.044 1478.22 134.598 1500.1 328.838 1529.66 393.98 1559.23 459.121 1594.11 490.507 1629 521.894" stroke="#000000" stroke-width="10.3125" stroke-miterlimit="8" fill="none" fill-rule="evenodd"/><path d="M2035 519.844 2784.9 519.844 2784.9 530.156 2035 530.156ZM2779.74 509.531 2810.68 525 2779.74 540.469Z"/><path d="M2105 529C2120.1 445.754 2135.21 362.508 2147.65 338.291 2160.08 314.074 2171.34 380.671 2179.63 383.698 2187.92 386.725 2181.41 358.724 2197.4 356.454 2213.39 354.184 2252.48 342.831 2275.58 370.076 2298.69 397.32 2317.34 458.619 2336 519.919" stroke="#000000" stroke-width="10.3125" stroke-miterlimit="8" fill="none" fill-rule="evenodd"/><path d="M2484 529C2499.1 445.754 2514.21 362.508 2526.65 338.291 2539.08 314.074 2550.34 380.671 2558.63 383.698 2566.92 386.725 2560.41 358.724 2576.4 356.454 2592.39 354.184 2631.48 342.831 2654.58 370.076 2677.68 397.32 2696.34 458.619 2715 519.919" stroke="#000000" stroke-width="10.3125" stroke-miterlimit="8" fill="none" fill-rule="evenodd"/><text font-family="Yu Gothic,Yu Gothic_MSFontService,sans-serif" font-weight="700" font-size="83" transform="matrix(1 0 0 1 2597.73 682)">time<tspan font-size="83" x="-409.267" y="-420">1</tspan><tspan font-size="83" x="-219.184" y="-420">0</tspan><tspan font-size="83" x="-31.2918" y="-420">1</tspan></text></g></svg>