<svg width="2396" height="725" xmlns="http://www.w3.org/2000/svg" xmlns:xlink="http://www.w3.org/1999/xlink" xml:space="preserve" overflow="hidden"><defs><clipPath id="clip0"><rect x="31" y="-3" width="2396" height="725"/></clipPath></defs><g clip-path="url(#clip0)" transform="translate(-31 3)"><path d="M30.9999 341 213.649 341" stroke="#000000" stroke-width="13.75" stroke-miterlimit="8" fill="none" fill-rule="evenodd"/><path d="M188 340C188 318.461 205.461 301 227 301 248.539 301 266 318.461 266 340 266 361.539 248.539 379 227 379 205.461 379 188 361.539 188 340Z" stroke="#000000" stroke-width="10.3125" stroke-miterlimit="8" fill="#FFFFFF" fill-rule="evenodd"/><path d="M447 340C447 318.461 464.461 301 486 301 507.539 301 525 318.461 525 340 525 361.539 507.539 379 486 379 464.461 379 447 361.539 447 340Z" stroke="#000000" stroke-width="10.3125" stroke-miterlimit="8" fill="#FFFFFF" fill-rule="evenodd"/><path d="M525 341 700.522 341" stroke="#000000" stroke-width="13.75" stroke-miterlimit="8" fill="none" fill-rule="evenodd"/><path d="M190 258 482.775 258.001" stroke="#000000" stroke-width="13.75" stroke-miterlimit="8" fill="none" fill-rule="evenodd"/><path d="M701 340C701 318.461 718.461 301 740 301 761.539 301 779 318.461 779 340 779 361.539 761.539 379 740 379 718.461 379 701 361.539 701 340Z" stroke="#000000" stroke-width="10.3125" stroke-miterlimit="8" fill="#FFFFFF" fill-rule="evenodd"/><path d="M960 340C960 318.461 977.461 301 999 301 1020.54 301 1038 318.461 1038 340 1038 361.539 1020.54 379 999 379 977.461 379 960 361.539 960 340Z" stroke="#000000" stroke-width="10.3125" stroke-miterlimit="8" fill="#FFFFFF" fill-rule="evenodd"/><path d="M1038 341 1213.52 341" stroke="#000000" stroke-width="13.75" stroke-miterlimit="8" fill="none" fill-rule="evenodd"/><rect x="269" y="191" width="136" height="65" stroke="#000000" stroke-width="10.3125" stroke-miterlimit="8" fill="#FFFFFF"/><path d="M725 258 1017.78 258.001" stroke="#000000" stroke-width="13.75" stroke-miterlimit="8" fill="none" fill-rule="evenodd"/><rect x="804" y="191" width="135" height="65" stroke="#000000" stroke-width="10.3125" stroke-miterlimit="8" fill="#FFFFFF"/><text font-family="Yu Gothic,Yu Gothic_MSFontService,sans-serif" font-weight="700" font-size="83" transform="matrix(1 0 0 1 421.302 98)">AND<tspan font-size="83" x="184.479" y="0">回路</tspan></text><path d="M1587 341 1769.65 341" stroke="#000000" stroke-width="13.75" stroke-miterlimit="8" fill="none" fill-rule="evenodd"/><path d="M1744 340C1744 318.461 1761.46 301 1783 301 1804.54 301 1822 318.461 1822 340 1822 361.539 1804.54 379 1783 379 1761.46 379 1744 361.539 1744 340Z" stroke="#000000" stroke-width="10.3125" stroke-miterlimit="8" fill="#FFFFFF" fill-rule="evenodd"/><path d="M2003 340C2003 318.461 2020.46 301 2042 301 2063.54 301 2081 318.461 2081 340 2081 361.539 2063.54 379 2042 379 2020.46 379 2003 361.539 2003 340Z" stroke="#000000" stroke-width="10.3125" stroke-miterlimit="8" fill="#FFFFFF" fill-rule="evenodd"/><path d="M2081 341 2256.52 341" stroke="#000000" stroke-width="13.75" stroke-miterlimit="8" fill="none" fill-rule="evenodd"/><path d="M1747 258 2039.78 258.001" stroke="#000000" stroke-width="13.75" stroke-miterlimit="8" fill="none" fill-rule="evenodd"/><rect x="1825" y="191" width="136" height="65" stroke="#000000" stroke-width="10.3125" stroke-miterlimit="8" fill="#FFFFFF"/><text font-family="Yu Gothic,Yu Gothic_MSFontService,sans-serif" font-weight="700" font-size="83" transform="matrix(1 0 0 1 1773.53 98)">OR<tspan font-size="83" x="120.886" y="0">回路</tspan></text><path d="M1587 679 1743.34 679" stroke="#000000" stroke-width="13.75" stroke-miterlimit="8" fill="none" fill-rule="evenodd"/><path d="M1744 678C1744 656.461 1761.46 639 1783 639 1804.54 639 1822 656.461 1822 678 1822 699.539 1804.54 717 1783 717 1761.46 717 1744 699.539 1744 678Z" stroke="#000000" stroke-width="10.3125" stroke-miterlimit="8" fill="#FFFFFF" fill-rule="evenodd"/><path d="M2003 678C2003 656.461 2020.46 639 2042 639 2063.54 639 2081 656.461 2081 678 2081 699.539 2063.54 717 2042 717 2020.46 717 2003 699.539 2003 678Z" stroke="#000000" stroke-width="10.3125" stroke-miterlimit="8" fill="#FFFFFF" fill-rule="evenodd"/><path d="M2081 679 2256.52 679" stroke="#000000" stroke-width="13.75" stroke-miterlimit="8" fill="none" fill-rule="evenodd"/><path d="M1768 596 2060.78 596" stroke="#000000" stroke-width="13.75" stroke-miterlimit="8" fill="none" fill-rule="evenodd"/><rect x="1847" y="528" width="136" height="66" stroke="#000000" stroke-width="10.3125" stroke-miterlimit="8" fill="#FFFFFF"/><path d="M1592 341 1592 678.597" stroke="#000000" stroke-width="13.75" stroke-miterlimit="8" fill="none" fill-rule="evenodd"/><path d="M1417 503 1592.52 503" stroke="#000000" stroke-width="13.75" stroke-miterlimit="8" fill="none" fill-rule="evenodd"/><path d="M2254 341 2254 678.597" stroke="#000000" stroke-width="13.75" stroke-miterlimit="8" fill="none" fill-rule="evenodd"/><path d="M2244 503 2419.52 503" stroke="#000000" stroke-width="13.75" stroke-miterlimit="8" fill="none" fill-rule="evenodd"/></g></svg>