<svg width="2982" height="818" xmlns="http://www.w3.org/2000/svg" xmlns:xlink="http://www.w3.org/1999/xlink" xml:space="preserve" overflow="hidden"><defs><clipPath id="clip0"><rect x="16" y="5" width="2982" height="818"/></clipPath></defs><g clip-path="url(#clip0)" transform="translate(-16 -5)"><rect x="628" y="11" width="447" height="188" stroke="#000000" stroke-width="10.3125" stroke-miterlimit="8" fill="#FFFFFF"/><text font-family="Yu Gothic,Yu Gothic_MSFontService,sans-serif" font-weight="700" font-size="110" transform="matrix(1 0 0 1 741.613 140)">制御</text><rect x="628" y="309" width="447" height="188" stroke="#000000" stroke-width="10.3125" stroke-miterlimit="8" fill="#FFFFFF"/><text font-family="Yu Gothic,Yu Gothic_MSFontService,sans-serif" font-weight="700" font-size="110" transform="matrix(1 0 0 1 741.613 438)">演算</text><rect x="628" y="596" width="447" height="188" stroke="#000000" stroke-width="10.3125" stroke-miterlimit="8" fill="#FFFFFF"/><text font-family="Yu Gothic,Yu Gothic_MSFontService,sans-serif" font-weight="700" font-size="110" transform="matrix(1 0 0 1 741.613 725)">記憶</text><rect x="21" y="596" width="447" height="188" stroke="#000000" stroke-width="10.3125" stroke-miterlimit="8" fill="#FFFFFF"/><text font-family="Yu Gothic,Yu Gothic_MSFontService,sans-serif" font-weight="700" font-size="110" transform="matrix(1 0 0 1 134.839 725)">入力</text><rect x="1235" y="596" width="447" height="188" stroke="#000000" stroke-width="10.3125" stroke-miterlimit="8" fill="#FFFFFF"/><text font-family="Yu Gothic,Yu Gothic_MSFontService,sans-serif" font-weight="700" font-size="110" transform="matrix(1 0 0 1 1348.39 725)">出力</text><path d="M852 199 852.001 309" stroke="#000000" stroke-width="10.3125" stroke-miterlimit="8" fill="none" fill-rule="evenodd"/><path d="M852 497 852.001 596.354" stroke="#000000" stroke-width="10.3125" stroke-miterlimit="8" fill="none" fill-rule="evenodd"/><path d="M0 0 159.677 0.000360892" stroke="#000000" stroke-width="10.3125" stroke-miterlimit="8" fill="none" fill-rule="evenodd" transform="matrix(-1 0 0 1 627.677 690)"/><path d="M0 0 159.677 0.000360892" stroke="#000000" stroke-width="10.3125" stroke-miterlimit="8" fill="none" fill-rule="evenodd" transform="matrix(-1 0 0 1 1234.68 690)"/><path d="M0 0 383.225 0 383.225 491.451" stroke="#000000" stroke-width="10.3125" stroke-miterlimit="8" fill="none" fill-rule="evenodd" transform="matrix(-1 1.22465e-16 1.22465e-16 1 628.226 105)"/><path d="M1075 105 1458.23 105 1458.23 596.451" stroke="#000000" stroke-width="10.3125" stroke-miterlimit="8" fill="none" fill-rule="evenodd"/><text font-family="Arial,Arial_MSFontService,sans-serif" font-weight="400" font-size="83" transform="matrix(1 0 0 1 1787.54 197)">•<tspan font-family="Yu Gothic,Yu Gothic_MSFontService,sans-serif" font-weight="700" font-size="83" x="103.125" y="0">通信モデム</tspan><tspan font-size="83" x="0" y="99">•</tspan><tspan font-family="Yu Gothic,Yu Gothic_MSFontService,sans-serif" font-weight="700" font-size="83" x="103.125" y="99">NIC</tspan><tspan font-family="Yu Gothic,Yu Gothic_MSFontService,sans-serif" font-weight="700" font-size="83" x="252.656" y="99">（ネットワークカード）</tspan><tspan font-size="83" x="0" y="198">•</tspan><tspan font-family="Yu Gothic,Yu Gothic_MSFontService,sans-serif" font-weight="700" font-size="83" x="103.125" y="198">タッチディスプレイ</tspan><tspan font-family="Yu Gothic,Yu Gothic_MSFontService,sans-serif" font-weight="700" font-size="147" x="218.09" y="384">？？？</tspan></text><path d="M1732.67 333.258 1672.75 367.855 1689.16 396.28 1599.49 372.252 1623.51 282.579 1639.93 311.004 1699.85 276.408Z" stroke="#000000" stroke-width="10.3125" stroke-miterlimit="8" fill="#FFFFFF" fill-rule="evenodd"/></g></svg>