<svg width="2594" height="989" xmlns="http://www.w3.org/2000/svg" xmlns:xlink="http://www.w3.org/1999/xlink" xml:space="preserve" overflow="hidden"><defs><clipPath id="clip0"><rect x="-20" y="-11" width="2594" height="989"/></clipPath></defs><g clip-path="url(#clip0)" transform="translate(20 11)"><path d="M579 177 741.551 177 849.907 177 878.275 177C953.786 177 1015 255.35 1015 352 1015 448.65 953.786 527 878.275 527L849.907 527 741.551 527 579 527C608.942 527 633.194 448.635 633.194 352 633.194 255.365 608.942 177 579 177Z" stroke="#000000" stroke-width="10.3125" stroke-miterlimit="8" fill="#FFFFFF" fill-rule="evenodd"/><path d="M603 589 809 589C922.771 589 1015 667.126 1015 763.5 1015 859.874 922.771 938 809 938L603 938Z" stroke="#000000" stroke-width="10.3125" stroke-miterlimit="8" fill="#FFFFFF" fill-rule="evenodd"/><path d="M1847 177 2053 177C2166.77 177 2259 255.35 2259 352 2259 448.65 2166.77 527 2053 527L1847 527Z" stroke="#000000" stroke-width="10.3125" stroke-miterlimit="8" fill="#FFFFFF" fill-rule="evenodd"/><text font-family="Arial,Arial_MSFontService,sans-serif" font-weight="700" font-size="83" transform="matrix(1 0 0 1 690.169 786)">AND<tspan font-size="83" x="1256.51" y="-411">AND</tspan><tspan font-size="83" x="12.0015" y="-411">OR</tspan></text><path d="M1427 316 1638 421.5 1427 527Z" stroke="#000000" stroke-width="10.3125" stroke-miterlimit="8" fill="#FFFFFF" fill-rule="evenodd"/><path d="M1631 422C1631 403.222 1646.22 388 1665 388 1683.78 388 1699 403.222 1699 422 1699 440.778 1683.78 456 1665 456 1646.22 456 1631 440.778 1631 422Z" stroke="#000000" stroke-width="10.3125" stroke-miterlimit="8" fill="#FFFFFF" fill-rule="evenodd"/><text font-family="Arial,Arial_MSFontService,sans-serif" font-weight="700" font-size="83" transform="matrix(1 0 0 1 1490.09 584)">NOT</text><path d="M280 284.5C280 260.476 299.476 241 323.5 241 347.525 241 367 260.476 367 284.5 367 308.524 347.525 328 323.5 328 299.476 328 280 308.524 280 284.5Z" stroke="#000000" stroke-width="10.3125" stroke-miterlimit="8" fill-rule="evenodd"/><path d="M417 837C417 813.252 436.252 794 460 794 483.748 794 503 813.252 503 837 503 860.748 483.748 880 460 880 436.252 880 417 860.748 417 837Z" stroke="#000000" stroke-width="10.3125" stroke-miterlimit="8" fill-rule="evenodd"/><path d="M1248 763.5C1248 739.476 1267.48 720 1291.5 720 1315.52 720 1335 739.476 1335 763.5 1335 787.525 1315.52 807 1291.5 807 1267.48 807 1248 787.525 1248 763.5Z" stroke="#000000" stroke-width="10.3125" stroke-miterlimit="8" fill-rule="evenodd"/><path d="M1025.27 352 1025.27 338.328 1024 338.328 1024 353.823" stroke="#4472C4" stroke-width="2.29167" stroke-miterlimit="8" fill="none" fill-rule="evenodd"/><path d="M0 0 245.176 0 245.176 107.315 835.355 107.315" stroke="#000000" stroke-width="10.3125" stroke-miterlimit="8" fill="none" fill-rule="evenodd" transform="matrix(1 0 0 -1 1012 350.315)"/><path d="M1291 720.581 1291 422 1426.11 422" stroke="#000000" stroke-width="10.3125" stroke-miterlimit="8" fill="none" fill-rule="evenodd"/><path d="M0 0 439.952 0.000360892" stroke="#000000" stroke-width="10.3125" stroke-miterlimit="8" fill="none" fill-rule="evenodd" transform="matrix(-1 0 0 1 620.952 285)"/><path d="M0 0 422.026 0.000360892" stroke="#000000" stroke-width="10.3125" stroke-miterlimit="8" fill="none" fill-rule="evenodd" transform="matrix(-1 0 0 1 603.026 837)"/><path d="M0 0 1370.9 0.000360892" stroke="#000000" stroke-width="10.3125" stroke-miterlimit="8" fill="none" fill-rule="evenodd" transform="matrix(-1 0 0 1 2394.9 763)"/><path d="M1846.92 423.163 1699 422" stroke="#000000" stroke-width="10.3125" stroke-miterlimit="8" fill="none" fill-rule="evenodd"/><path d="M0 0 147.918 0.000360892" stroke="#000000" stroke-width="10.3125" stroke-miterlimit="8" fill="none" fill-rule="evenodd" transform="matrix(-1 0 0 1 2406.92 349)"/><text font-family="Arial,Arial_MSFontService,sans-serif" font-weight="700" font-size="110" transform="matrix(1 0 0 1 2428.21 395)">S<tspan font-size="110" x="0" y="414">C</tspan><tspan font-size="110" x="-2381.55" y="-63">A</tspan><tspan font-size="110" x="-2381.55" y="492">B</tspan></text><path d="M0 0 369.931 0 369.931 279.87" stroke="#000000" stroke-width="10.3125" stroke-miterlimit="8" fill="none" fill-rule="evenodd" transform="matrix(1.83697e-16 1 1 -1.83697e-16 323 328)"/><path d="M0 0 165.02 0 165.02 373.376" stroke="#000000" stroke-width="10.3125" stroke-miterlimit="8" fill="none" fill-rule="evenodd" transform="matrix(-1 1.22465e-16 1.22465e-16 1 625.02 420)"/><text font-family="Yu Gothic,Yu Gothic_MSFontService,sans-serif" font-weight="700" font-size="83" transform="matrix(1 0 0 1 1013.84 90)">半加算器</text></g></svg>