<?xml version="1.0" encoding="UTF-8"?>
<svg id="_レイヤー_1" data-name="レイヤー 1" xmlns="http://www.w3.org/2000/svg" width="20mm" height="20mm" viewBox="0 0 56.69 56.69">
  <defs>
    <style>
      .cls-1 {
        fill: #fff;
        stroke: #231815;
        stroke-miterlimit: 10;
        stroke-width: 1.42px;
      }

      .cls-2 {
        fill: #231815;
      }
    </style>
  </defs>
  <rect class="cls-1" x=".71" y=".71" width="55.28" height="55.28"/>
  <g>
    <path class="cls-2" d="m13.32,16.15c.95,1.07,2.13,1.61,3.53,1.61.64,0,1.15-.13,1.53-.38.45-.31.68-.74.68-1.29,0-.5-.2-.9-.59-1.22-.26-.21-.88-.51-1.87-.89l-.26-.1-.47-.19s-.09-.04-.17-.07c-1.02-.38-1.67-.7-1.97-.95-.05-.04-.1-.1-.17-.17-.49-.53-.74-1.17-.74-1.92,0-.96.35-1.74,1.04-2.33.72-.62,1.7-.93,2.93-.93.86,0,1.62.13,2.3.38.54.21,1.07.53,1.6.95l-.96,1.33c-.82-.78-1.79-1.16-2.93-1.16-.74,0-1.28.17-1.62.52-.29.29-.43.65-.43,1.07,0,.48.21.86.62,1.15.26.18.82.43,1.67.73l.55.2c1.22.44,2.05.87,2.5,1.29.63.59.94,1.32.94,2.21,0,1.1-.43,1.95-1.29,2.57-.71.5-1.68.75-2.91.75-1.91,0-3.44-.65-4.59-1.94l1.07-1.22Z"/>
    <path class="cls-2" d="m22.12,7.57h2.01l2.52,6.85c.29.79.54,1.6.74,2.41h.06c.17-.73.41-1.53.74-2.41l2.52-6.85h2.01l-4.52,11.64h-1.56l-4.52-11.64Z"/>
    <path class="cls-2" d="m42.5,19.11l-.33-1.29c-.29.41-.66.74-1.11.99-.61.33-1.29.5-2.03.5-1.52,0-2.81-.52-3.86-1.56-1.1-1.09-1.65-2.56-1.65-4.39,0-1.61.44-2.96,1.33-4.06,1.08-1.33,2.51-2,4.28-2,.92,0,1.75.15,2.49.46.56.23,1.15.59,1.76,1.09l-1.03,1.28c-.55-.46-1.04-.77-1.46-.96-.49-.21-1.06-.31-1.7-.31-1.08,0-1.97.41-2.66,1.24-.68.81-1.02,1.9-1.02,3.29,0,1.3.31,2.35.94,3.13.65.81,1.53,1.22,2.65,1.22.78,0,1.47-.19,2.05-.56.46-.3.78-.65.95-1.06v-1.43h-3.07v-1.46h4.79v5.88h-1.32Z"/>
    <path class="cls-2" d="m5.2,34.64v-1.56c.44-1.36,1.63-2.69,3.58-3.99l.38-.26c.84-.56,1.42-1.01,1.73-1.37.35-.4.53-.83.53-1.29,0-.42-.13-.78-.38-1.08-.38-.46-.94-.69-1.7-.69-1.12,0-2.13.47-3.02,1.4l-1.19-1.09c.31-.38.69-.71,1.12-.97.93-.56,1.96-.84,3.1-.84.89,0,1.65.17,2.3.51.56.29,1,.7,1.3,1.2.28.48.42,1,.42,1.56,0,.73-.28,1.41-.84,2.03-.37.42-1.07.98-2.1,1.67l-.44.3c-1.08.73-1.8,1.28-2.15,1.63-.42.43-.71.82-.84,1.17h6.48v1.66H5.2Z"/>
    <path class="cls-2" d="m20.14,22.88c1.45,0,2.58.63,3.38,1.89.67,1.05,1,2.44,1,4.16,0,1.57-.28,2.87-.85,3.89-.79,1.43-1.97,2.14-3.55,2.14-1.42,0-2.52-.59-3.31-1.77-.72-1.06-1.07-2.48-1.07-4.26s.38-3.31,1.15-4.38c.79-1.11,1.88-1.67,3.26-1.67Zm-.02,1.49c-.75,0-1.34.41-1.77,1.23-.42.8-.63,1.91-.63,3.33,0,1.32.19,2.38.57,3.17.44.9,1.05,1.34,1.84,1.34.69,0,1.25-.36,1.68-1.08.48-.81.72-1.95.72-3.43s-.21-2.51-.62-3.31c-.43-.83-1.03-1.25-1.79-1.25Z"/>
    <path class="cls-2" d="m28.33,26.28v1.47c.15-.42.41-.77.76-1.07.46-.38.94-.57,1.45-.57,1.19,0,1.98.58,2.37,1.74.14-.4.35-.73.61-.99.5-.5,1.11-.75,1.81-.75.88,0,1.57.34,2.07,1.03.39.53.58,1.29.58,2.28v5.21h-1.8v-5.02c0-1.34-.43-2.01-1.29-2.01-.41,0-.79.22-1.14.66-.29.37-.48.82-.57,1.34v5.03h-1.81v-5.02c0-1.34-.43-2.01-1.29-2.01-.33,0-.65.17-.94.51-.35.41-.6.95-.73,1.62v4.9h-1.8v-8.36h1.72Z"/>
    <path class="cls-2" d="m41.94,26.28v1.47c.15-.42.41-.77.76-1.07.46-.38.94-.57,1.45-.57,1.19,0,1.98.58,2.37,1.74.14-.4.35-.73.61-.99.5-.5,1.11-.75,1.81-.75.88,0,1.57.34,2.07,1.03.39.53.58,1.29.58,2.28v5.21h-1.8v-5.02c0-1.34-.43-2.01-1.29-2.01-.41,0-.79.22-1.14.66-.29.37-.48.82-.57,1.34v5.03h-1.81v-5.02c0-1.34-.43-2.01-1.29-2.01-.33,0-.65.17-.94.51-.35.41-.6.95-.73,1.62v4.9h-1.8v-8.36h1.72Z"/>
    <path class="cls-2" d="m27.38,39v11.75h-1.54v-1.04h-9.17v1.04h-1.52v-11.75h12.23Zm-5.3,1.38h-1.84v.98c0,1.51-.21,2.69-.63,3.52-.35.7-.97,1.35-1.88,1.95l-1-1.09c.57-.3,1-.64,1.29-1.04.51-.7.76-1.79.76-3.27v-1.04h-2.12v7.94h9.17v-2.43h-2.47c-.86,0-1.29-.43-1.29-1.29v-4.22Zm1.45,0v3.88c0,.17.09.26.26.26h2.06v-4.14h-2.31Z"/>
    <path class="cls-2" d="m35.07,41.49c-.03.77-.08,1.45-.14,2.03h5.58c-.07,3.2-.25,5.28-.54,6.24-.15.48-.42.81-.82,1-.31.14-.77.21-1.38.21-.64,0-1.36-.05-2.17-.15l-.27-1.56c1.08.15,1.85.23,2.29.23.37,0,.61-.11.71-.32.24-.52.42-1.94.51-4.28h-4.12c-.15.83-.37,1.55-.64,2.16-.77,1.68-2.06,3.02-3.86,4.01l-1.09-1.22c1.81-.94,3-2.18,3.58-3.7.39-1.02.64-2.57.75-4.66h-4.58v-1.42h5.65v-2.31h1.6v2.31h5.84v1.42h-6.91Z"/>
  </g>
</svg>