<svg width="1734" height="745" xmlns="http://www.w3.org/2000/svg" xmlns:xlink="http://www.w3.org/1999/xlink" xml:space="preserve" overflow="hidden"><defs><clipPath id="clip0"><rect x="107" y="-11" width="1734" height="745"/></clipPath></defs><g clip-path="url(#clip0)" transform="translate(-107 11)"><text font-family="Yu Gothic,Yu Gothic_MSFontService,sans-serif" font-weight="700" font-size="83" transform="matrix(1 0 0 1 301.46 90)">アナログ<tspan font-size="83" x="911.764" y="0">デジタル</tspan></text><path d="M107 519.844 790.896 519.844 790.896 530.156 107 530.156ZM785.74 509.531 816.677 525 785.74 540.469Z"/><text font-family="Yu Gothic,Yu Gothic_MSFontService,sans-serif" font-weight="700" font-size="83" transform="matrix(1 0 0 1 604.03 661)">time</text><path d="M257 528C293.262 368.806 329.525 209.612 370.358 209.001 411.191 208.39 456.595 366.362 502 524.333" stroke="#000000" stroke-width="10.3125" stroke-miterlimit="8" fill="none" fill-rule="evenodd"/><path d="M259 205 494.807 205" stroke="#000000" stroke-width="10.3125" stroke-miterlimit="8" fill="none" fill-rule="evenodd"/><text font-family="Yu Gothic,Yu Gothic_MSFontService,sans-serif" font-weight="700" font-size="83" transform="matrix(1 0 0 1 529.019 234)">100</text><path d="M1100 519.844 1783.9 519.844 1783.9 530.156 1100 530.156ZM1778.74 509.531 1809.68 525 1778.74 540.469Z"/><rect x="1161" y="370" width="68.0001" height="155" stroke="#000000" stroke-width="10.3125" stroke-miterlimit="8" fill="#FFFFFF"/><rect x="1229" y="370" width="69.0001" height="155" stroke="#000000" stroke-width="10.3125" stroke-miterlimit="8" fill="#FFFFFF"/><rect x="1429" y="370" width="69.0001" height="155" stroke="#000000" stroke-width="10.3125" stroke-miterlimit="8" fill="#FFFFFF"/><text font-family="Yu Gothic,Yu Gothic_MSFontService,sans-serif" font-weight="700" font-size="83" transform="matrix(1 0 0 1 1168.28 327)">1<tspan font-size="83" x="68.6436" y="0">1</tspan><tspan font-size="83" x="137.287" y="0">0</tspan><tspan font-size="83" x="205.931" y="0">0</tspan><tspan font-size="83" x="274.574" y="0">1</tspan><tspan font-size="83" x="343.218" y="0">0</tspan><tspan font-size="83" x="411.861" y="0">0</tspan><tspan font-size="83" x="444.077" y="334">time</tspan></text></g></svg>